<svg width="60" height="17" viewBox="0 0 60 17" fill="none" xmlns="http://www.w3.org/2000/svg">
<path fill-rule="evenodd" clip-rule="evenodd" d="M0 2.28284H3.38864L5.59633 8.27577L7.9091 2.28284H11.1927L5.57795 16.1603H2.33057L3.99126 11.8603L0 2.28284Z" fill="#B8C0D5"/>
<path fill-rule="evenodd" clip-rule="evenodd" d="M43.1948 7.43649C43.1948 4.33579 41.0331 2.07068 38.0683 2.07068L38.0033 2.07101L37.9352 2.07209C36.6473 2.09961 35.6044 2.52814 34.915 3.30248L34.8992 3.32034L34.8992 2.28283H32.1016L32.1014 16.1569H35.2654L35.2654 11.8992L35.3042 11.9311L35.3498 11.9674C36.0529 12.5172 36.9744 12.8023 38.0683 12.8023C41.0331 12.8023 43.1948 10.5372 43.1948 7.43649ZM35.2009 7.43635C35.2009 5.9064 36.169 4.86759 37.5943 4.86759C39.0383 4.86759 40.0093 5.9033 40.0093 7.43635C40.0093 8.96941 39.0383 10.0051 37.5943 10.0051C36.169 10.0051 35.2009 8.96631 35.2009 7.43635Z" fill="#B8C0D5"/>
<path fill-rule="evenodd" clip-rule="evenodd" d="M22.534 7.43649C22.534 4.29154 20.2198 2.07068 16.9551 2.07068C13.6721 2.07068 11.3546 4.28841 11.3546 7.43649C11.3546 10.5707 13.6798 12.8023 16.9551 12.8023C20.2121 12.8023 22.534 10.5676 22.534 7.43649ZM14.5402 7.43635C14.5402 5.91166 15.5249 4.86759 16.9552 4.86759C18.3669 4.86759 19.3486 5.91479 19.3486 7.43635C19.3486 8.95792 18.3669 10.0051 16.9552 10.0051C15.5249 10.0051 14.5402 8.96105 14.5402 7.43635Z" fill="#B8C0D5"/>
<path fill-rule="evenodd" clip-rule="evenodd" d="M27.8047 0.00012207L27.8046 2.28301H30.4082V4.97398L27.8046 4.9739L27.8047 8.68838C27.8047 9.51928 28.2149 9.97633 28.9613 10.0041L28.9977 10.0051L29.0346 10.0054C29.5408 10.0054 29.9243 9.87448 30.2673 9.54986L30.2994 9.51885L30.3847 9.43261H30.4082V12.4009L30.3112 12.4466C29.7906 12.6917 29.4694 12.8025 28.5821 12.8025C26.0734 12.8025 24.6957 11.4577 24.6423 8.94713L24.6411 8.87069L24.6407 8.79445L24.6406 4.9739L23.4957 4.97398V2.28301H24.7269L24.7269 0.00012207H27.8047Z" fill="#B8C0D5"/>
<path fill-rule="evenodd" clip-rule="evenodd" d="M55.6875 7.43649C55.6875 4.29154 53.3732 2.07068 50.1085 2.07068C46.8255 2.07068 44.5081 4.28841 44.5081 7.43649C44.5081 10.5707 46.8333 12.8023 50.1085 12.8023C53.3655 12.8023 55.6875 10.5676 55.6875 7.43649ZM47.6936 7.43635C47.6936 5.91166 48.6782 4.86759 50.1085 4.86759C51.5202 4.86759 52.502 5.91479 52.502 7.43635C52.502 8.95792 51.5202 10.0051 50.1085 10.0051C48.6782 10.0051 47.6936 8.96105 47.6936 7.43635Z" fill="#B8C0D5"/>
<ellipse cx="58.2663" cy="11.0953" rx="1.73369" ry="1.70702" fill="#B8C0D5"/>
</svg>
