<svg width="80" height="80" viewBox="0 0 80 80" fill="none" xmlns="http://www.w3.org/2000/svg">
<g clip-path="url(#clip0_56_28180)">
<path d="M35.2373 6.12256C37.8026 3.3686 42.1662 3.3686 44.7314 6.12256C46.7889 8.33105 49.9265 9.17167 52.8125 8.2876C56.411 7.18543 60.1896 9.36712 61.0342 13.0347C61.7117 15.9759 64.008 18.2722 66.9492 18.9497C70.6168 19.7943 72.7985 23.5729 71.6963 27.1714C70.8122 30.0574 71.6528 33.195 73.8613 35.2524C76.6153 37.8177 76.6153 42.1813 73.8613 44.7466C71.6528 46.804 70.8122 49.9416 71.6963 52.8276C72.7985 56.4261 70.6168 60.2047 66.9492 61.0493C64.008 61.7268 61.7117 64.0232 61.0342 66.9644C60.1896 70.6319 56.411 72.8136 52.8125 71.7114C49.9265 70.8274 46.7889 71.668 44.7314 73.8765C42.1662 76.6304 37.8026 76.6304 35.2373 73.8765C33.1799 71.668 30.0422 70.8274 27.1562 71.7114C23.5578 72.8136 19.7792 70.6319 18.9346 66.9644C18.2571 64.0232 15.9607 61.7268 13.0195 61.0493C9.35199 60.2047 7.17029 56.4261 8.27246 52.8276C9.15653 49.9416 8.31592 46.804 6.10742 44.7466C3.35347 42.1813 3.35347 37.8177 6.10742 35.2524C8.31592 33.195 9.15653 30.0574 8.27246 27.1714C7.17029 23.5729 9.35199 19.7943 13.0195 18.9497C15.9607 18.2722 18.2571 15.9759 18.9346 13.0347C19.7792 9.36712 23.5578 7.18543 27.1562 8.2876C30.0422 9.17167 33.1799 8.33105 35.2373 6.12256Z" fill="#ECB8CF" stroke="black" stroke-width="1.4"/>
<circle cx="39.9844" cy="39.9995" r="23.3" fill="white" stroke="black" stroke-width="1.4"/>
<path d="M27.9844 39.9995C35.1844 40.7995 39.1844 44.7995 39.9844 51.9995C40.7844 44.7995 44.7844 40.7995 51.9844 39.9995C44.7844 39.1995 40.7844 35.1995 39.9844 27.9995C39.1844 35.1995 35.1844 39.1995 27.9844 39.9995Z" fill="#ECB8CF" stroke="black" stroke-width="1.4" stroke-linecap="round" stroke-linejoin="round"/>
</g>
<defs>
<clipPath id="clip0_56_28180">
<rect width="80" height="80" fill="white"/>
</clipPath>
</defs>
</svg>
